<?xml version="1.0" encoding="utf-8"?>
<!-- Generator: Adobe Illustrator 24.0.1, SVG Export Plug-In . SVG Version: 6.00 Build 0)  -->
<svg version="1.1" id="Camada_1" xmlns="http://www.w3.org/2000/svg" xmlns:xlink="http://www.w3.org/1999/xlink" x="0px" y="0px"
	 viewBox="0 0 32 32" style="enable-background:new 0 0 32 32;" xml:space="preserve">
<style type="text/css">
	.st0{fill:url(#SVGID_1_);}
	.st1{opacity:0.23;clip-path:url(#SVGID_3_);fill:#FFFFFF;}
	.st2{opacity:0.23;fill:#FFFFFF;}
	.st3{opacity:0.24;fill:#FFFFFF;}
	.st4{opacity:0.15;fill:#FFFFFF;}
</style>
<linearGradient id="SVGID_1_" gradientUnits="userSpaceOnUse" x1="15.9959" y1="31.9651" x2="15.9959" y2="-9.094947e-13">
	<stop  offset="0" style="stop-color:#D16357"/>
	<stop  offset="6.669724e-02" style="stop-color:#CB5C51"/>
	<stop  offset="0.4692" style="stop-color:#A9372F"/>
	<stop  offset="0.7945" style="stop-color:#94201A"/>
	<stop  offset="1" style="stop-color:#8C1812"/>
</linearGradient>
<path class="st0" d="M16,32L16,32C7.2,32,0,24.8,0,16v0C0,7.2,7.2,0,16,0h0c8.8,0,16,7.2,16,16v0C32,24.8,24.8,32,16,32z"/>
<g>
	<defs>
		<ellipse id="SVGID_2_" cx="16" cy="16" rx="16" ry="16"/>
	</defs>
	<clipPath id="SVGID_3_">
		<use xlink:href="#SVGID_2_"  style="overflow:visible;"/>
	</clipPath>
	<rect x="-1.9" y="14.9" class="st1" width="15.6" height="8.6"/>
	<rect x="18" y="3.2" class="st1" width="15.6" height="8.6"/>
</g>
<image style="overflow:visible;" width="560" height="560" xlink:href="271196A8.png"  transform="matrix(5.714286e-02 0 0 5.714286e-02 2.663759e-02 0)">
</image>
<rect x="17.9" y="23.1" class="st2" width="7.8" height="4.3"/>
<rect x="18.4" y="23.4" class="st3" width="2.4" height="0.6"/>
<rect x="18.4" y="24.2" class="st3" width="4.9" height="0.6"/>
<rect x="13.6" y="2.3" class="st4" width="2.4" height="0.6"/>
<rect x="13.6" y="3.1" class="st4" width="4" height="0.6"/>
<rect x="13.6" y="1.5" class="st4" width="4.9" height="0.6"/>
<rect x="13.2" y="1.2" class="st2" width="7.8" height="4.3"/>
</svg>
