<svg xmlns="http://www.w3.org/2000/svg" viewBox="0 0 1600 1000" width="1600" height="1000">
  <!-- Spooky's room picture (a special theme, add_special_themes.sql): a
       jack-o'-lantern as a flat glyph, white on nothing, its face and the
       grooves between its ribs cut through, so the room's own dark shows
       there. Shown faint, covering the view. -->
  <defs>
    <mask id="cut" maskUnits="userSpaceOnUse" x="0" y="0" width="1600" height="1000">
      <rect width="1600" height="1000" fill="#fff"/>
      <g fill="none" stroke="#000" stroke-width="16" stroke-linecap="round">
        <path d="M652 338 C 598 452 598 676 652 782"/>
        <path d="M948 338 C 1002 452 1002 676 948 782"/>
      </g>
      <g fill="#000">
        <path d="M672 516 L 756 516 L 714 436 Z"/>
        <path d="M844 516 L 928 516 L 886 436 Z"/>
        <path d="M774 588 L 826 588 L 800 546 Z"/>
        <path d="M650 620 L 688 652 L 718 628 L 752 664 L 784 636 L 800 658 L 816 636 L 848 664 L 882 628 L 912 652 L 950 620 C 922 726 850 756 800 756 C 750 756 678 726 650 620 Z"/>
      </g>
    </mask>
  </defs>
  <g fill="#fff" mask="url(#cut)">
    <ellipse cx="652" cy="566" rx="212" ry="236"/>
    <ellipse cx="948" cy="566" rx="212" ry="236"/>
    <ellipse cx="800" cy="560" rx="180" ry="250"/>
  </g>
  <path fill="#fff" d="M782 300 C 778 262 770 236 790 206 C 800 192 828 196 828 212 C 816 228 812 262 818 300 Z"/>
</svg>
